<svg id="svg" version="1.1" xmlns="http://www.w3.org/2000/svg" xmlns:xlink="http://www.w3.org/1999/xlink" width="400" height="400" viewBox="0, 0, 400,400"><g id="svgg"><path id="path0" d="M110.800 192.003 L 110.800 326.806 137.300 326.703 L 163.800 326.600 163.907 317.081 C 163.983 310.361,164.142 307.641,164.449 307.830 C 165.326 308.372,163.366 305.727,161.017 303.198 C 155.852 297.638,150.565 289.609,148.374 284.000 C 147.901 282.790,147.368 281.440,147.190 281.000 C 146.297 278.792,146.710 276.800,148.062 276.800 C 148.247 276.800,149.429 275.810,150.689 274.600 C 151.948 273.390,153.208 272.400,153.489 272.400 C 153.770 272.400,154.000 272.124,154.000 271.787 C 154.000 271.451,154.315 271.056,154.700 270.910 C 155.412 270.640,158.273 268.136,159.738 266.500 C 160.182 266.005,160.753 265.600,161.008 265.600 C 161.263 265.600,162.059 264.954,162.778 264.165 C 163.496 263.375,164.605 262.547,165.242 262.325 C 165.879 262.103,166.400 261.656,166.400 261.332 C 166.400 260.575,167.199 259.781,168.319 259.426 C 168.803 259.272,169.200 258.990,169.200 258.800 C 169.200 258.610,169.541 258.346,169.957 258.214 C 170.373 258.082,170.797 257.655,170.899 257.265 C 171.001 256.875,171.653 256.281,172.348 255.944 C 173.043 255.607,174.914 254.078,176.506 252.546 C 178.098 251.013,179.717 249.639,180.103 249.491 C 180.490 249.343,181.014 248.767,181.268 248.211 C 181.521 247.655,181.957 247.200,182.236 247.200 C 182.516 247.200,183.612 246.301,184.672 245.202 C 185.733 244.103,186.786 243.203,187.013 243.202 C 187.241 243.201,188.714 241.940,190.288 240.400 C 191.862 238.860,193.305 237.600,193.494 237.600 C 193.683 237.600,194.541 236.880,195.400 236.000 C 196.259 235.120,197.098 234.400,197.263 234.400 C 197.699 234.400,199.600 232.433,199.600 231.982 C 199.600 231.772,199.876 231.600,200.212 231.600 C 200.549 231.600,201.403 230.970,202.110 230.200 C 202.816 229.430,203.704 228.800,204.083 228.800 C 204.462 228.800,204.973 228.424,205.219 227.965 C 205.704 227.058,208.018 224.831,208.495 224.812 C 208.657 224.805,209.659 223.945,210.722 222.900 C 212.336 221.314,215.924 218.032,218.873 215.444 C 219.244 215.119,220.054 214.526,220.673 214.127 C 221.293 213.727,222.181 212.995,222.646 212.500 C 223.111 212.005,223.693 211.600,223.938 211.600 C 224.184 211.600,224.498 211.150,224.636 210.600 C 224.778 210.034,225.176 209.600,225.553 209.600 C 225.920 209.600,227.149 208.700,228.284 207.600 C 229.419 206.500,230.495 205.594,230.674 205.586 C 230.853 205.579,232.170 204.410,233.600 202.990 C 235.030 201.569,236.388 200.405,236.619 200.404 C 236.849 200.402,237.741 199.680,238.600 198.800 C 239.459 197.920,240.396 197.200,240.681 197.200 C 240.967 197.200,241.200 197.033,241.200 196.828 C 241.200 196.225,243.702 193.837,245.000 193.202 C 245.660 192.879,247.219 191.621,248.464 190.407 C 252.207 186.758,252.808 186.480,254.310 187.700 C 254.590 187.928,254.925 188.008,255.055 187.879 C 255.184 187.749,254.685 187.284,253.945 186.845 C 253.205 186.406,252.383 185.857,252.117 185.624 C 251.851 185.391,251.463 185.200,251.255 185.200 C 250.929 185.200,249.471 184.543,246.705 183.150 C 246.323 182.957,245.648 182.800,245.205 182.800 C 244.762 182.800,244.400 182.620,244.400 182.400 C 244.400 182.180,244.076 182.000,243.680 182.000 C 243.284 182.000,242.789 181.845,242.580 181.656 C 242.371 181.467,241.210 180.992,240.000 180.601 C 238.790 180.210,237.440 179.751,237.000 179.581 C 236.560 179.411,235.030 179.048,233.600 178.776 C 232.170 178.504,230.820 178.179,230.600 178.054 C 229.976 177.700,227.169 177.727,226.945 178.089 C 226.835 178.267,226.570 178.305,226.356 178.173 C 226.143 178.041,225.602 178.398,225.155 178.966 C 224.708 179.535,224.167 180.000,223.954 180.000 C 223.741 180.000,223.180 180.360,222.708 180.800 C 222.236 181.240,221.613 181.600,221.325 181.600 C 221.036 181.600,220.800 181.835,220.800 182.122 C 220.800 182.680,218.377 185.200,217.839 185.200 C 217.662 185.200,216.324 186.370,214.865 187.800 C 213.407 189.230,212.050 190.400,211.850 190.400 C 211.651 190.400,210.701 191.165,209.741 192.100 C 207.232 194.542,206.447 195.200,206.043 195.200 C 205.847 195.200,205.574 195.650,205.436 196.200 C 205.252 196.931,204.917 197.200,204.192 197.200 C 203.647 197.200,203.190 197.425,203.178 197.700 C 203.166 197.975,202.311 198.752,201.278 199.426 C 200.245 200.100,199.222 201.045,199.005 201.526 C 198.788 202.007,198.421 202.400,198.190 202.400 C 197.959 202.400,196.883 203.300,195.800 204.400 C 194.717 205.500,193.598 206.400,193.315 206.400 C 193.032 206.400,192.800 206.580,192.800 206.800 C 192.800 207.020,192.570 207.200,192.288 207.200 C 192.006 207.200,191.192 207.819,190.478 208.576 C 189.764 209.333,188.824 210.065,188.390 210.203 C 187.955 210.341,187.600 210.669,187.600 210.932 C 187.600 211.195,187.195 211.588,186.700 211.805 C 186.205 212.022,185.622 212.605,185.405 213.100 C 185.188 213.595,184.736 214.000,184.401 214.000 C 184.066 214.000,183.568 214.360,183.293 214.800 C 183.018 215.240,182.537 215.600,182.224 215.600 C 181.910 215.600,181.540 215.960,181.400 216.400 C 181.260 216.840,180.900 217.200,180.600 217.200 C 180.300 217.200,179.936 217.570,179.793 218.023 C 179.649 218.476,179.097 219.011,178.566 219.213 C 178.035 219.415,177.600 219.855,177.600 220.190 C 177.600 220.526,177.349 220.800,177.043 220.800 C 176.736 220.800,176.382 221.070,176.255 221.400 C 176.129 221.730,175.708 222.000,175.321 222.000 C 174.934 222.000,173.960 222.675,173.157 223.500 C 170.266 226.470,167.342 229.200,167.052 229.200 C 166.890 229.200,166.181 229.739,165.478 230.398 C 164.775 231.057,163.975 231.597,163.700 231.598 C 163.425 231.599,163.200 231.838,163.200 232.128 C 163.200 232.674,161.436 234.400,160.878 234.400 C 160.704 234.400,159.851 235.137,158.981 236.038 C 158.112 236.938,156.995 237.834,156.500 238.028 C 156.005 238.222,155.600 238.655,155.600 238.990 C 155.600 239.326,155.412 239.600,155.183 239.600 C 154.953 239.600,153.900 240.410,152.841 241.400 C 151.783 242.390,150.785 243.200,150.624 243.200 C 150.463 243.200,149.224 244.280,147.870 245.600 C 146.517 246.920,145.282 248.000,145.126 248.000 C 144.647 248.000,142.800 249.863,142.800 250.346 C 142.800 250.596,142.414 250.800,141.942 250.800 C 141.092 250.800,141.087 250.744,141.366 245.359 C 142.219 228.903,148.994 213.269,160.700 200.743 L 164.000 197.212 164.000 127.206 L 164.000 57.200 137.400 57.200 L 110.800 57.200 110.800 192.003 M266.400 196.600 C 266.917 197.150,267.480 197.600,267.652 197.600 C 267.823 197.600,267.514 197.150,266.964 196.600 C 266.414 196.050,265.850 195.600,265.712 195.600 C 265.574 195.600,265.883 196.050,266.400 196.600 M269.201 199.000 C 269.751 199.660,270.245 200.275,270.300 200.367 C 270.355 200.458,270.488 200.445,270.596 200.338 C 270.704 200.230,270.209 199.615,269.497 198.971 L 268.203 197.800 269.201 199.000 " stroke="none" fill="#155b6c" fill-rule="evenodd"></path><path id="path1" d="M285.667 226.800 C 285.755 227.195,285.548 227.357,285.060 227.273 C 284.653 227.204,284.425 227.317,284.553 227.525 C 284.788 227.904,281.119 231.600,280.508 231.600 C 280.328 231.600,279.195 232.586,277.991 233.791 C 276.786 234.996,275.673 235.986,275.518 235.991 C 275.363 235.996,274.804 236.405,274.276 236.900 C 273.748 237.395,272.126 238.925,270.672 240.300 C 269.217 241.675,267.954 242.800,267.864 242.800 C 267.774 242.800,266.913 243.520,265.951 244.400 C 264.988 245.280,264.015 246.000,263.789 246.000 C 263.562 246.000,262.217 247.170,260.800 248.600 C 259.383 250.030,257.993 251.200,257.712 251.200 C 257.430 251.200,257.200 251.474,257.200 251.810 C 257.200 252.145,256.795 252.577,256.300 252.770 C 255.805 252.962,254.871 253.678,254.225 254.360 C 253.579 255.042,252.814 255.600,252.525 255.600 C 252.236 255.600,252.000 255.874,252.000 256.210 C 252.000 256.545,251.550 256.991,251.000 257.200 C 250.450 257.409,250.000 257.855,250.000 258.190 C 250.000 258.526,249.732 258.800,249.403 258.800 C 249.075 258.800,248.582 259.160,248.307 259.600 C 248.032 260.040,247.401 260.400,246.904 260.400 C 246.407 260.400,245.999 260.625,245.998 260.900 C 245.995 261.604,241.998 265.600,241.296 265.600 C 241.129 265.600,240.768 265.960,240.493 266.400 C 240.218 266.840,239.647 267.200,239.224 267.200 C 238.800 267.200,238.343 267.551,238.206 267.980 C 238.070 268.408,237.651 268.857,237.275 268.976 C 236.898 269.096,235.332 270.452,233.795 271.990 C 232.258 273.528,230.841 274.789,230.647 274.793 C 230.218 274.801,228.800 276.389,228.800 276.861 C 228.800 277.048,228.524 277.200,228.188 277.200 C 227.851 277.200,226.997 277.830,226.290 278.600 C 225.584 279.370,224.824 280.004,224.603 280.009 C 224.381 280.014,223.032 281.184,221.604 282.609 C 220.176 284.034,218.826 285.202,218.604 285.204 C 218.382 285.207,217.038 286.377,215.618 287.804 C 214.198 289.232,212.819 290.400,212.554 290.400 C 212.288 290.400,211.617 290.940,211.061 291.600 C 210.506 292.260,209.847 292.800,209.597 292.800 C 209.026 292.800,208.236 293.586,207.890 294.500 C 207.744 294.885,207.389 295.200,207.100 295.200 C 206.811 295.200,205.506 296.280,204.200 297.600 C 202.894 298.920,201.663 300.000,201.466 300.000 C 201.024 300.000,198.000 303.076,198.000 303.526 C 198.000 303.704,197.370 304.098,196.600 304.400 C 195.830 304.702,195.200 305.191,195.200 305.487 C 195.200 305.783,194.902 306.140,194.537 306.279 C 194.173 306.419,193.054 307.320,192.051 308.281 C 191.048 309.242,189.816 310.131,189.314 310.257 C 188.758 310.397,188.400 310.788,188.400 311.256 C 188.400 311.679,188.085 312.142,187.700 312.285 C 187.315 312.428,186.709 312.872,186.353 313.272 C 185.997 313.673,185.512 314.000,185.276 314.000 C 185.039 314.000,184.526 314.540,184.136 315.200 C 183.746 315.860,183.099 316.400,182.697 316.400 C 182.295 316.400,181.595 316.746,181.141 317.169 C 180.282 317.969,180.426 318.800,181.424 318.800 C 181.741 318.800,182.000 318.977,182.000 319.192 C 182.000 319.408,182.450 319.698,183.000 319.836 C 183.550 319.974,184.000 320.247,184.000 320.443 C 184.000 320.640,184.360 320.800,184.800 320.800 C 185.240 320.800,185.600 320.980,185.600 321.200 C 185.600 321.420,186.140 321.600,186.800 321.600 C 187.460 321.600,188.000 321.780,188.000 322.000 C 188.000 322.220,188.540 322.400,189.200 322.400 C 189.860 322.400,190.400 322.580,190.400 322.800 C 190.400 323.020,190.929 323.200,191.576 323.200 C 192.223 323.200,192.864 323.380,193.000 323.600 C 193.136 323.820,193.676 324.000,194.200 324.000 C 194.724 324.000,195.264 324.180,195.400 324.400 C 195.536 324.620,196.427 324.800,197.381 324.800 C 198.445 324.800,199.192 325.003,199.317 325.327 C 199.442 325.653,200.332 325.890,201.659 325.949 C 202.837 326.001,203.860 326.214,203.933 326.422 C 204.119 326.947,226.275 326.926,226.600 326.400 C 226.736 326.180,227.724 326.000,228.795 326.000 C 229.993 326.000,230.974 325.769,231.343 325.400 C 231.680 325.063,232.657 324.800,233.571 324.800 C 234.467 324.800,235.200 324.620,235.200 324.400 C 235.200 324.180,235.819 324.000,236.576 324.000 C 237.333 324.000,238.064 323.820,238.200 323.600 C 238.336 323.380,238.876 323.200,239.400 323.200 C 239.924 323.200,240.464 323.020,240.600 322.800 C 240.736 322.580,241.287 322.400,241.824 322.400 C 242.361 322.400,242.800 322.220,242.800 322.000 C 242.800 321.780,243.340 321.600,244.000 321.600 C 244.660 321.600,245.200 321.420,245.200 321.200 C 245.200 320.980,245.549 320.800,245.976 320.800 C 246.403 320.800,246.864 320.620,247.000 320.400 C 247.136 320.180,247.597 320.000,248.024 320.000 C 248.451 320.000,248.800 319.820,248.800 319.600 C 248.800 319.380,249.160 319.200,249.600 319.200 C 250.040 319.200,250.400 319.020,250.400 318.800 C 250.400 318.580,250.676 318.400,251.013 318.400 C 251.349 318.400,251.729 318.130,251.855 317.800 C 251.982 317.470,252.426 317.200,252.843 317.200 C 253.259 317.200,253.600 317.020,253.600 316.800 C 253.600 316.580,253.870 316.400,254.200 316.400 C 254.530 316.400,254.800 316.220,254.800 316.000 C 254.800 315.780,255.160 315.600,255.600 315.600 C 256.040 315.600,256.400 315.450,256.400 315.268 C 256.400 315.085,256.895 314.681,257.500 314.370 C 258.105 314.060,258.891 313.489,259.247 313.103 C 259.603 312.716,260.087 312.400,260.323 312.400 C 260.560 312.400,261.575 311.590,262.579 310.600 C 263.583 309.610,264.565 308.800,264.762 308.800 C 265.254 308.800,272.400 301.689,272.400 301.200 C 272.400 300.982,273.210 299.983,274.200 298.979 C 275.190 297.975,276.000 296.960,276.000 296.723 C 276.000 296.487,276.316 296.003,276.703 295.647 C 277.089 295.291,277.660 294.505,277.970 293.900 C 278.281 293.295,278.685 292.800,278.868 292.800 C 279.050 292.800,279.200 292.440,279.200 292.000 C 279.200 291.560,279.380 291.200,279.600 291.200 C 279.820 291.200,280.000 290.930,280.000 290.600 C 280.000 290.270,280.180 290.000,280.400 290.000 C 280.620 290.000,280.800 289.640,280.800 289.200 C 280.800 288.760,280.980 288.400,281.200 288.400 C 281.420 288.400,281.600 288.059,281.600 287.643 C 281.600 287.226,281.870 286.782,282.200 286.655 C 282.530 286.529,282.800 286.149,282.800 285.813 C 282.800 285.476,282.980 285.200,283.200 285.200 C 283.420 285.200,283.600 284.851,283.600 284.424 C 283.600 283.997,283.780 283.536,284.000 283.400 C 284.220 283.264,284.400 282.803,284.400 282.376 C 284.400 281.949,284.580 281.600,284.800 281.600 C 285.020 281.600,285.200 281.060,285.200 280.400 C 285.200 279.740,285.380 279.200,285.600 279.200 C 285.820 279.200,286.000 278.761,286.000 278.224 C 286.000 277.687,286.180 277.136,286.400 277.000 C 286.620 276.864,286.800 276.324,286.800 275.800 C 286.800 275.276,286.980 274.736,287.200 274.600 C 287.420 274.464,287.600 273.733,287.600 272.976 C 287.600 272.219,287.780 271.600,288.000 271.600 C 288.220 271.600,288.400 270.867,288.400 269.971 C 288.400 269.057,288.663 268.080,289.000 267.743 C 289.369 267.374,289.600 266.393,289.600 265.195 C 289.600 264.124,289.780 263.136,290.000 263.000 C 290.543 262.665,290.546 240.516,290.003 240.333 C 289.785 240.260,289.560 239.256,289.503 238.103 C 289.446 236.949,289.254 236.004,289.076 236.003 C 288.898 236.001,288.864 235.820,289.000 235.600 C 289.136 235.380,289.057 235.200,288.824 235.200 C 288.591 235.200,288.400 234.606,288.400 233.880 C 288.400 233.154,288.221 232.381,288.002 232.162 C 287.784 231.944,287.564 231.278,287.515 230.682 C 287.466 230.087,287.255 229.600,287.046 229.600 C 286.837 229.600,286.780 229.486,286.919 229.347 C 287.058 229.208,286.960 228.713,286.700 228.247 C 286.441 227.781,286.222 227.280,286.214 227.133 C 286.206 226.987,286.050 226.717,285.867 226.533 C 285.683 226.350,285.593 226.470,285.667 226.800 " stroke="none" fill="#8dcfe2" fill-rule="evenodd"></path><path id="path2" d="M272.737 206.000 C 272.249 206.660,271.642 207.200,271.387 207.200 C 270.875 207.200,268.808 208.905,266.173 211.500 C 265.223 212.435,264.290 213.200,264.098 213.200 C 263.906 213.200,263.232 213.740,262.600 214.400 C 261.968 215.060,261.214 215.600,260.925 215.600 C 260.636 215.600,260.400 215.960,260.400 216.400 C 260.400 216.895,260.133 217.200,259.700 217.201 C 259.315 217.202,258.640 217.741,258.200 218.400 C 257.760 219.059,257.206 219.598,256.970 219.599 C 256.733 219.599,256.117 220.050,255.600 220.600 C 255.083 221.150,254.526 221.600,254.362 221.600 C 254.198 221.600,253.270 222.365,252.300 223.300 C 248.439 227.023,245.964 229.200,245.591 229.200 C 245.376 229.200,245.200 229.465,245.200 229.789 C 245.200 230.118,244.628 230.523,243.900 230.708 C 243.160 230.896,242.430 231.418,242.205 231.919 C 241.988 232.404,241.577 232.800,241.293 232.800 C 241.008 232.800,240.656 233.115,240.510 233.500 C 240.188 234.350,239.385 235.200,238.903 235.200 C 238.709 235.200,238.032 235.740,237.400 236.400 C 236.768 237.060,236.035 237.600,235.772 237.600 C 235.509 237.600,235.200 237.958,235.085 238.395 C 234.971 238.833,234.455 239.356,233.939 239.558 C 233.422 239.761,232.198 240.753,231.217 241.763 C 230.236 242.773,229.260 243.600,229.048 243.600 C 228.836 243.600,227.923 244.365,227.020 245.300 C 226.116 246.235,224.788 247.450,224.069 248.000 C 223.350 248.550,222.264 249.450,221.655 250.000 C 219.172 252.244,217.991 253.200,217.700 253.200 C 217.531 253.200,217.168 253.560,216.893 254.000 C 216.618 254.440,216.163 254.800,215.882 254.800 C 215.600 254.800,214.483 255.700,213.400 256.800 C 212.317 257.900,211.241 258.800,211.010 258.800 C 210.779 258.800,210.412 259.205,210.195 259.700 C 209.978 260.195,209.395 260.778,208.900 260.995 C 208.405 261.212,208.000 261.617,208.000 261.895 C 208.000 262.173,207.765 262.400,207.477 262.400 C 207.189 262.400,205.884 263.478,204.577 264.797 C 203.270 266.115,201.992 267.195,201.737 267.197 C 201.482 267.198,200.465 268.100,199.476 269.200 C 198.487 270.300,197.588 271.200,197.479 271.200 C 197.370 271.200,196.666 271.785,195.916 272.500 C 195.166 273.215,193.134 275.060,191.400 276.600 C 189.667 278.140,187.923 279.715,187.524 280.100 C 187.126 280.485,186.651 280.800,186.470 280.800 C 185.981 280.800,184.400 282.577,184.400 283.126 C 184.400 283.387,184.167 283.600,183.883 283.600 C 183.599 283.600,182.572 284.410,181.600 285.400 C 180.628 286.390,179.611 287.200,179.339 287.200 C 179.068 287.200,178.610 287.518,178.323 287.907 C 178.035 288.296,177.350 288.902,176.800 289.253 C 176.250 289.605,173.936 291.672,171.659 293.846 C 169.381 296.021,167.351 297.862,167.148 297.937 C 166.417 298.208,162.400 302.168,162.400 302.618 C 162.400 302.871,162.760 303.493,163.200 304.000 C 163.640 304.507,164.000 305.353,164.000 305.879 C 164.000 308.824,166.621 309.370,169.335 306.991 C 170.471 305.996,171.897 304.961,172.505 304.691 C 173.112 304.421,173.709 303.885,173.832 303.500 C 173.954 303.115,174.395 302.800,174.811 302.800 C 175.228 302.800,175.891 302.471,176.284 302.068 C 176.678 301.666,178.927 299.679,181.283 297.653 C 183.638 295.628,185.906 293.537,186.322 293.008 C 186.739 292.478,187.872 291.440,188.840 290.701 C 189.808 289.961,191.950 288.049,193.600 286.451 C 199.124 281.102,200.592 279.760,201.971 278.800 C 202.724 278.275,203.824 277.340,204.414 276.723 C 205.004 276.105,205.647 275.600,205.843 275.600 C 206.039 275.600,206.707 274.965,207.327 274.188 C 207.946 273.412,209.155 272.311,210.014 271.743 C 210.872 271.175,211.682 270.371,211.814 269.955 C 211.946 269.540,212.234 269.200,212.454 269.200 C 212.674 269.200,213.516 268.572,214.327 267.803 C 215.137 267.035,215.935 266.405,216.100 266.403 C 216.264 266.402,217.543 265.305,218.941 263.966 C 220.339 262.627,221.914 261.319,222.441 261.059 C 222.969 260.799,223.578 260.184,223.795 259.693 C 224.012 259.202,224.377 258.800,224.607 258.800 C 224.836 258.800,225.624 258.164,226.357 257.387 C 227.089 256.610,228.209 255.706,228.845 255.377 C 229.480 255.048,230.000 254.514,230.000 254.190 C 230.000 253.865,230.140 253.600,230.311 253.600 C 230.482 253.600,231.225 253.049,231.962 252.375 C 232.700 251.702,233.775 250.847,234.352 250.475 C 235.531 249.716,236.464 248.899,240.909 244.732 C 242.619 243.130,244.359 241.634,244.775 241.409 C 245.192 241.184,246.313 240.270,247.266 239.378 C 248.220 238.485,249.315 237.636,249.700 237.490 C 250.085 237.344,250.400 236.949,250.400 236.613 C 250.400 236.276,250.592 236.000,250.828 236.000 C 251.500 236.000,256.292 231.878,256.519 231.105 C 256.631 230.722,257.180 230.236,257.739 230.023 C 258.298 229.811,259.936 228.503,261.378 227.118 C 262.819 225.733,264.740 224.060,265.645 223.400 C 266.550 222.740,268.148 221.390,269.196 220.400 C 270.245 219.410,271.949 217.880,272.983 217.000 C 274.017 216.120,275.692 214.655,276.705 213.745 C 278.276 212.332,278.628 212.171,279.102 212.645 C 280.035 213.578,280.100 213.265,279.227 212.038 C 278.772 211.399,278.400 210.743,278.400 210.579 C 278.400 210.052,274.727 205.801,274.256 205.782 C 274.005 205.772,273.845 205.547,273.900 205.282 C 274.064 204.489,273.676 204.729,272.737 206.000 M166.833 309.300 C 166.925 309.355,167.540 309.850,168.200 310.400 L 169.400 311.400 168.430 310.300 C 167.897 309.695,167.282 309.200,167.064 309.200 C 166.845 309.200,166.742 309.245,166.833 309.300 " stroke="none" fill="#5c9fb4" fill-rule="evenodd"></path><path id="path3" d="M264.469 197.238 C 264.207 197.657,263.838 198.000,263.648 198.000 C 263.458 198.000,262.155 199.077,260.752 200.394 C 259.348 201.711,257.975 202.791,257.700 202.794 C 257.425 202.797,257.190 203.025,257.177 203.300 C 257.155 203.777,254.174 206.330,252.155 207.600 C 251.631 207.930,251.201 208.425,251.201 208.700 C 251.200 208.975,251.009 209.200,250.776 209.200 C 250.543 209.200,249.400 210.100,248.237 211.200 C 247.074 212.300,245.915 213.200,245.661 213.200 C 245.408 213.200,245.200 213.470,245.200 213.800 C 245.200 214.130,245.035 214.400,244.834 214.400 C 244.632 214.400,243.742 215.075,242.856 215.900 C 241.970 216.725,240.511 218.030,239.614 218.800 C 238.717 219.570,237.245 220.875,236.343 221.700 C 235.441 222.525,234.489 223.200,234.226 223.200 C 233.964 223.200,233.516 223.795,233.231 224.522 C 232.906 225.349,232.242 226.050,231.456 226.395 C 230.765 226.698,229.723 227.453,229.140 228.073 C 228.556 228.693,227.926 229.202,227.740 229.204 C 227.412 229.208,226.577 230.129,225.386 231.800 C 224.931 232.438,224.743 232.491,224.461 232.062 C 224.195 231.659,224.040 231.785,223.845 232.562 C 223.702 233.133,223.408 233.600,223.191 233.600 C 222.975 233.600,222.147 234.320,221.352 235.200 C 220.557 236.080,219.677 236.800,219.396 236.800 C 219.115 236.800,218.776 237.085,218.643 237.433 C 218.509 237.782,218.176 237.992,217.903 237.901 C 217.424 237.741,216.400 238.484,216.400 238.991 C 216.400 239.529,213.744 241.912,212.826 242.198 C 212.290 242.365,210.553 243.693,208.965 245.151 C 207.377 246.608,204.602 249.060,202.798 250.600 C 196.868 255.662,195.004 257.331,194.680 257.869 C 194.504 258.161,194.139 258.400,193.869 258.400 C 193.599 258.400,192.926 258.895,192.372 259.500 C 191.819 260.105,189.942 261.860,188.201 263.400 C 186.460 264.940,184.287 266.875,183.373 267.700 C 182.459 268.525,181.621 269.200,181.511 269.200 C 181.402 269.200,180.656 269.818,179.855 270.574 C 177.461 272.832,174.948 274.800,174.459 274.800 C 174.206 274.800,174.000 274.973,174.000 275.184 C 174.000 275.669,171.550 277.945,169.200 279.644 C 168.210 280.360,166.718 281.632,165.885 282.473 C 165.051 283.313,164.196 284.000,163.985 284.000 C 163.773 284.000,163.600 284.173,163.600 284.384 C 163.600 284.887,161.530 286.800,160.985 286.800 C 160.753 286.800,159.671 287.804,158.581 289.032 C 157.491 290.260,156.190 291.427,155.690 291.626 C 153.415 292.531,155.596 296.641,162.100 303.706 C 163.911 305.673,164.874 305.930,163.200 304.000 C 162.760 303.493,162.400 302.871,162.400 302.618 C 162.400 302.168,166.417 298.208,167.148 297.937 C 167.351 297.862,169.381 296.021,171.659 293.846 C 173.936 291.672,176.250 289.605,176.800 289.253 C 177.350 288.902,178.035 288.296,178.323 287.907 C 178.610 287.518,179.068 287.200,179.339 287.200 C 179.611 287.200,180.628 286.390,181.600 285.400 C 182.572 284.410,183.599 283.600,183.883 283.600 C 184.167 283.600,184.400 283.361,184.400 283.070 C 184.400 282.532,186.022 280.800,186.526 280.800 C 186.677 280.800,187.126 280.485,187.524 280.100 C 187.923 279.715,189.667 278.140,191.400 276.600 C 193.134 275.060,195.166 273.215,195.916 272.500 C 196.666 271.785,197.370 271.200,197.479 271.200 C 197.588 271.200,198.487 270.300,199.476 269.200 C 200.465 268.100,201.482 267.198,201.737 267.197 C 201.992 267.195,203.270 266.115,204.577 264.797 C 205.884 263.478,207.189 262.400,207.477 262.400 C 207.765 262.400,208.000 262.173,208.000 261.895 C 208.000 261.617,208.405 261.212,208.900 260.995 C 209.395 260.778,209.978 260.195,210.195 259.700 C 210.412 259.205,210.779 258.800,211.010 258.800 C 211.241 258.800,212.317 257.900,213.400 256.800 C 214.483 255.700,215.600 254.800,215.882 254.800 C 216.163 254.800,216.618 254.440,216.893 254.000 C 217.168 253.560,217.531 253.200,217.700 253.200 C 217.991 253.200,219.172 252.244,221.655 250.000 C 222.264 249.450,223.350 248.550,224.069 248.000 C 224.788 247.450,226.116 246.235,227.020 245.300 C 227.923 244.365,228.836 243.600,229.048 243.600 C 229.260 243.600,230.236 242.773,231.217 241.763 C 232.198 240.753,233.422 239.761,233.939 239.558 C 234.455 239.356,234.971 238.833,235.085 238.395 C 235.200 237.958,235.509 237.600,235.772 237.600 C 236.035 237.600,236.768 237.060,237.400 236.400 C 238.032 235.740,238.709 235.200,238.903 235.200 C 239.385 235.200,240.188 234.350,240.510 233.500 C 240.656 233.115,241.008 232.800,241.293 232.800 C 241.577 232.800,241.988 232.404,242.205 231.919 C 242.430 231.418,243.160 230.896,243.900 230.708 C 244.628 230.523,245.200 230.118,245.200 229.789 C 245.200 229.465,245.376 229.200,245.591 229.200 C 245.964 229.200,248.439 227.023,252.300 223.300 C 253.270 222.365,254.198 221.600,254.362 221.600 C 254.526 221.600,255.083 221.150,255.600 220.600 C 256.117 220.050,256.733 219.599,256.970 219.599 C 257.206 219.598,257.760 219.059,258.200 218.400 C 258.640 217.741,259.315 217.202,259.700 217.201 C 260.133 217.200,260.400 216.895,260.400 216.400 C 260.400 215.960,260.636 215.600,260.925 215.600 C 261.214 215.600,261.968 215.060,262.600 214.400 C 263.232 213.740,263.906 213.200,264.098 213.200 C 264.290 213.200,265.223 212.435,266.173 211.500 C 268.768 208.944,270.873 207.200,271.363 207.200 C 271.603 207.200,272.311 206.560,272.935 205.777 L 274.070 204.355 273.235 203.630 C 272.776 203.232,272.400 202.804,272.400 202.679 C 272.400 202.492,270.651 200.753,267.393 197.702 C 266.249 196.631,264.975 196.428,264.469 197.238 " stroke="none" fill="#488ca0" fill-rule="evenodd"></path><path id="path4" d="M279.387 214.378 C 279.615 214.748,274.479 219.755,273.500 220.117 C 273.115 220.259,272.800 220.548,272.800 220.760 C 272.800 220.973,272.395 221.273,271.900 221.428 C 270.934 221.729,270.846 221.804,266.582 225.927 C 265.032 227.425,263.457 228.769,263.082 228.913 C 262.707 229.057,262.400 229.356,262.400 229.577 C 262.400 229.798,261.905 230.239,261.300 230.556 C 260.695 230.874,259.271 232.048,258.137 233.167 C 257.002 234.285,255.983 235.200,255.873 235.200 C 255.763 235.200,254.622 236.186,253.337 237.391 C 252.052 238.596,250.771 239.586,250.490 239.591 C 250.210 239.596,249.808 240.053,249.597 240.607 C 249.387 241.161,248.806 241.774,248.307 241.968 C 247.808 242.163,246.780 242.970,246.022 243.761 C 245.263 244.553,244.421 245.200,244.148 245.200 C 243.876 245.200,243.552 245.520,243.428 245.911 C 243.304 246.302,241.807 247.787,240.101 249.211 C 238.396 250.635,236.280 252.494,235.400 253.342 C 234.520 254.191,232.844 255.599,231.676 256.473 C 230.507 257.346,229.453 258.317,229.333 258.631 C 229.213 258.944,228.768 259.200,228.345 259.200 C 227.921 259.200,227.454 259.515,227.307 259.900 C 227.009 260.677,225.604 261.966,225.032 261.987 C 224.830 261.994,223.464 263.125,221.997 264.500 C 220.530 265.875,218.279 267.900,216.996 269.000 C 215.713 270.100,214.379 271.328,214.032 271.729 C 213.684 272.129,212.815 272.705,212.101 273.008 C 211.386 273.311,210.594 274.014,210.340 274.572 C 210.086 275.129,209.551 275.689,209.150 275.816 C 208.749 275.943,208.075 276.487,207.653 277.024 C 207.230 277.561,206.718 278.000,206.515 278.000 C 206.311 278.000,205.771 278.405,205.315 278.900 C 204.858 279.395,203.570 280.430,202.452 281.200 C 201.332 281.971,200.414 282.915,200.409 283.300 C 200.404 283.714,200.094 284.000,199.651 284.000 C 198.711 284.000,195.600 287.325,195.600 288.329 C 195.600 289.158,194.418 290.400,193.629 290.400 C 193.350 290.400,192.617 290.940,192.000 291.600 C 191.383 292.260,190.713 292.800,190.509 292.800 C 190.025 292.800,188.587 294.407,188.272 295.300 C 188.136 295.685,187.766 296.000,187.450 296.000 C 187.133 296.000,185.732 297.126,184.337 298.502 C 182.942 299.878,181.260 301.273,180.600 301.602 C 179.142 302.329,178.400 302.996,178.400 303.581 C 178.400 303.823,177.860 304.128,177.200 304.260 C 176.540 304.392,176.000 304.748,176.000 305.050 C 176.000 305.353,175.828 305.600,175.617 305.600 C 175.406 305.600,174.461 306.341,173.517 307.246 C 172.573 308.152,171.395 309.163,170.900 309.492 C 170.405 309.822,170.000 310.376,170.000 310.722 C 170.000 311.234,169.882 311.206,169.378 310.576 C 168.787 309.838,168.779 309.847,169.218 310.748 C 169.472 311.269,170.021 311.785,170.440 311.894 C 170.858 312.004,171.200 312.265,171.200 312.475 C 171.200 312.961,172.063 313.767,172.736 313.909 C 173.020 313.968,173.634 314.373,174.101 314.809 C 174.569 315.244,175.187 315.600,175.475 315.600 C 175.764 315.600,176.000 315.780,176.000 316.000 C 176.000 316.220,176.360 316.400,176.800 316.400 C 177.240 316.400,177.600 316.547,177.600 316.726 C 177.600 317.330,180.763 318.784,181.053 318.314 C 181.215 318.051,181.139 317.991,180.862 318.162 C 180.086 318.641,180.348 317.822,181.205 317.089 C 181.647 316.710,182.328 316.400,182.718 316.400 C 183.108 316.400,183.746 315.860,184.136 315.200 C 184.526 314.540,185.039 314.000,185.276 314.000 C 185.512 314.000,185.997 313.673,186.353 313.272 C 186.709 312.872,187.315 312.428,187.700 312.285 C 188.085 312.142,188.400 311.679,188.400 311.256 C 188.400 310.788,188.758 310.397,189.314 310.257 C 189.816 310.131,191.048 309.242,192.051 308.281 C 193.054 307.320,194.173 306.419,194.537 306.279 C 194.902 306.140,195.200 305.783,195.200 305.487 C 195.200 305.191,195.830 304.702,196.600 304.400 C 197.370 304.098,198.000 303.704,198.000 303.526 C 198.000 303.076,201.024 300.000,201.466 300.000 C 201.663 300.000,202.894 298.920,204.200 297.600 C 205.506 296.280,206.811 295.200,207.100 295.200 C 207.389 295.200,207.744 294.885,207.890 294.500 C 208.236 293.586,209.026 292.800,209.597 292.800 C 209.847 292.800,210.506 292.260,211.061 291.600 C 211.617 290.940,212.288 290.400,212.554 290.400 C 212.819 290.400,214.198 289.232,215.618 287.804 C 217.038 286.377,218.382 285.207,218.604 285.204 C 218.826 285.202,220.176 284.034,221.604 282.609 C 223.032 281.184,224.381 280.014,224.603 280.009 C 224.824 280.004,225.584 279.370,226.290 278.600 C 226.997 277.830,227.851 277.200,228.188 277.200 C 228.524 277.200,228.800 277.048,228.800 276.861 C 228.800 276.389,230.218 274.801,230.647 274.793 C 230.841 274.789,232.258 273.528,233.795 271.990 C 235.332 270.452,236.898 269.096,237.275 268.976 C 237.651 268.857,238.070 268.408,238.206 267.980 C 238.343 267.551,238.800 267.200,239.224 267.200 C 239.647 267.200,240.218 266.840,240.493 266.400 C 240.768 265.960,241.129 265.600,241.296 265.600 C 241.998 265.600,245.995 261.604,245.998 260.900 C 245.999 260.625,246.407 260.400,246.904 260.400 C 247.401 260.400,248.032 260.040,248.307 259.600 C 248.582 259.160,249.075 258.800,249.403 258.800 C 249.732 258.800,250.000 258.526,250.000 258.190 C 250.000 257.855,250.450 257.409,251.000 257.200 C 251.550 256.991,252.000 256.545,252.000 256.210 C 252.000 255.874,252.236 255.600,252.525 255.600 C 252.814 255.600,253.579 255.042,254.225 254.360 C 254.871 253.678,255.805 252.962,256.300 252.770 C 256.795 252.577,257.200 252.145,257.200 251.810 C 257.200 251.474,257.430 251.200,257.712 251.200 C 257.993 251.200,259.383 250.030,260.800 248.600 C 262.217 247.170,263.562 246.000,263.789 246.000 C 264.015 246.000,264.988 245.280,265.951 244.400 C 266.913 243.520,267.774 242.800,267.864 242.800 C 267.954 242.800,269.217 241.675,270.672 240.300 C 272.126 238.925,273.748 237.395,274.276 236.900 C 274.804 236.405,275.363 235.996,275.518 235.991 C 275.673 235.986,276.786 234.996,277.991 233.791 C 279.195 232.586,280.328 231.600,280.508 231.600 C 281.094 231.600,284.793 227.912,284.569 227.550 C 284.317 227.142,285.563 227.275,286.300 227.735 C 286.575 227.907,286.800 227.876,286.800 227.666 C 286.800 227.457,286.533 227.183,286.207 227.058 C 285.856 226.923,285.714 226.568,285.860 226.188 C 285.995 225.835,285.921 225.153,285.694 224.673 C 284.693 222.555,284.000 220.851,284.000 220.511 C 284.000 220.308,283.465 219.435,282.811 218.571 C 282.157 217.707,281.617 216.775,281.611 216.500 C 281.605 216.225,281.420 216.000,281.200 216.000 C 280.980 216.000,280.800 215.661,280.800 215.247 C 280.800 214.830,280.443 214.400,279.999 214.284 C 279.559 214.169,279.283 214.211,279.387 214.378 " stroke="none" fill="#64acbc" fill-rule="evenodd"></path><path id="path5" d="M276.724 213.726 C 275.701 214.647,274.017 216.120,272.983 217.000 C 271.949 217.880,270.245 219.410,269.196 220.400 C 268.148 221.390,266.550 222.740,265.645 223.400 C 264.740 224.060,262.819 225.733,261.378 227.118 C 259.936 228.503,258.298 229.811,257.739 230.023 C 257.180 230.236,256.631 230.722,256.519 231.105 C 256.292 231.878,251.500 236.000,250.828 236.000 C 250.592 236.000,250.400 236.276,250.400 236.613 C 250.400 236.949,250.085 237.344,249.700 237.490 C 249.315 237.636,248.220 238.485,247.266 239.378 C 246.313 240.270,245.192 241.184,244.775 241.409 C 244.359 241.634,242.619 243.130,240.909 244.732 C 236.464 248.899,235.531 249.716,234.352 250.475 C 233.775 250.847,232.700 251.702,231.962 252.375 C 231.225 253.049,230.482 253.600,230.311 253.600 C 230.140 253.600,230.000 253.865,230.000 254.190 C 230.000 254.514,229.480 255.048,228.845 255.377 C 228.209 255.706,227.089 256.610,226.357 257.387 C 225.624 258.164,224.836 258.800,224.607 258.800 C 224.377 258.800,224.012 259.202,223.795 259.693 C 223.578 260.184,222.969 260.799,222.441 261.059 C 221.914 261.319,220.339 262.627,218.941 263.966 C 217.543 265.305,216.264 266.402,216.100 266.403 C 215.935 266.405,215.137 267.035,214.327 267.803 C 213.516 268.572,212.674 269.200,212.454 269.200 C 212.234 269.200,211.946 269.540,211.814 269.955 C 211.682 270.371,210.872 271.175,210.014 271.743 C 209.155 272.311,207.946 273.412,207.327 274.188 C 206.707 274.965,206.039 275.600,205.843 275.600 C 205.647 275.600,205.004 276.105,204.414 276.723 C 203.824 277.340,202.724 278.275,201.971 278.800 C 200.592 279.760,199.124 281.102,193.600 286.451 C 191.950 288.049,189.808 289.961,188.840 290.701 C 187.872 291.440,186.739 292.478,186.322 293.008 C 185.906 293.537,183.638 295.628,181.283 297.653 C 178.927 299.679,176.678 301.666,176.284 302.068 C 175.891 302.471,175.228 302.800,174.811 302.800 C 174.395 302.800,173.954 303.115,173.832 303.500 C 173.709 303.885,173.112 304.424,172.505 304.698 C 170.262 305.708,166.706 309.116,167.599 309.400 C 168.336 309.634,168.584 310.086,168.437 310.930 C 168.406 311.111,168.568 311.144,168.797 311.002 C 169.026 310.861,169.092 310.549,168.945 310.311 C 168.779 310.043,168.864 309.992,169.165 310.179 C 169.434 310.345,169.554 310.742,169.432 311.061 C 169.307 311.385,169.384 311.534,169.605 311.397 C 169.822 311.263,170.000 310.914,170.000 310.622 C 170.000 310.331,170.405 309.822,170.900 309.492 C 171.395 309.163,172.573 308.152,173.517 307.246 C 174.461 306.341,175.406 305.600,175.617 305.600 C 175.828 305.600,176.000 305.353,176.000 305.050 C 176.000 304.748,176.540 304.392,177.200 304.260 C 177.860 304.128,178.400 303.823,178.400 303.581 C 178.400 302.996,179.142 302.329,180.600 301.602 C 181.260 301.273,182.942 299.878,184.337 298.502 C 185.732 297.126,187.133 296.000,187.450 296.000 C 187.766 296.000,188.136 295.685,188.272 295.300 C 188.587 294.407,190.025 292.800,190.509 292.800 C 190.713 292.800,191.383 292.260,192.000 291.600 C 192.617 290.940,193.381 290.400,193.698 290.400 C 194.459 290.400,195.600 289.116,195.600 288.260 C 195.600 287.308,198.746 284.000,199.651 284.000 C 200.094 284.000,200.404 283.714,200.409 283.300 C 200.414 282.915,201.332 281.971,202.452 281.200 C 203.570 280.430,204.858 279.395,205.315 278.900 C 205.771 278.405,206.311 278.000,206.515 278.000 C 206.718 278.000,207.230 277.561,207.653 277.024 C 208.075 276.487,208.749 275.943,209.150 275.816 C 209.551 275.689,210.086 275.129,210.340 274.572 C 210.594 274.014,211.386 273.311,212.101 273.008 C 212.815 272.705,213.684 272.129,214.032 271.729 C 214.379 271.328,215.713 270.100,216.996 269.000 C 218.279 267.900,220.530 265.875,221.997 264.500 C 223.464 263.125,224.830 261.994,225.032 261.987 C 225.604 261.966,227.009 260.677,227.307 259.900 C 227.454 259.515,227.921 259.200,228.345 259.200 C 228.768 259.200,229.213 258.944,229.333 258.631 C 229.453 258.317,230.507 257.346,231.676 256.473 C 232.844 255.599,234.520 254.191,235.400 253.342 C 236.280 252.494,238.396 250.635,240.101 249.211 C 241.807 247.787,243.304 246.302,243.428 245.911 C 243.552 245.520,243.876 245.200,244.148 245.200 C 244.421 245.200,245.263 244.553,246.022 243.761 C 246.780 242.970,247.808 242.163,248.307 241.968 C 248.806 241.774,249.387 241.161,249.597 240.607 C 249.808 240.053,250.210 239.596,250.490 239.591 C 250.771 239.586,252.052 238.596,253.337 237.391 C 254.622 236.186,255.763 235.200,255.873 235.200 C 255.983 235.200,257.002 234.285,258.137 233.167 C 259.271 232.048,260.673 230.885,261.252 230.582 C 261.830 230.278,262.409 229.753,262.539 229.415 C 262.669 229.077,262.964 228.800,263.196 228.800 C 263.427 228.800,264.918 227.541,266.508 226.001 C 270.838 221.810,270.932 221.730,271.863 221.439 C 272.338 221.291,272.827 220.906,272.950 220.585 C 273.074 220.263,273.381 220.000,273.632 220.000 C 274.289 220.000,279.615 214.748,279.366 214.345 C 279.252 214.161,279.459 214.124,279.826 214.265 C 280.389 214.481,280.425 214.395,280.061 213.713 C 279.823 213.269,279.757 212.763,279.914 212.588 C 280.071 212.414,279.955 212.414,279.655 212.587 C 279.353 212.762,278.994 212.714,278.848 212.478 C 278.690 212.222,277.845 212.718,276.724 213.726 " stroke="none" fill="#64a4bc" fill-rule="evenodd"></path><path id="path6" d="M204.000 177.200 C 204.000 177.422,202.941 177.600,201.624 177.600 C 200.317 177.600,199.136 177.780,199.000 178.000 C 198.864 178.220,198.043 178.400,197.176 178.400 C 196.309 178.400,195.600 178.580,195.600 178.800 C 195.600 179.020,194.970 179.200,194.200 179.200 C 193.430 179.200,192.800 179.380,192.800 179.600 C 192.800 179.820,192.260 180.000,191.600 180.000 C 190.940 180.000,190.400 180.180,190.400 180.400 C 190.400 180.620,189.854 180.800,189.187 180.800 C 188.479 180.800,187.879 181.049,187.745 181.400 C 187.618 181.730,187.094 182.000,186.581 182.000 C 186.067 182.000,185.536 182.180,185.400 182.400 C 185.264 182.620,184.803 182.800,184.376 182.800 C 183.949 182.800,183.600 182.980,183.600 183.200 C 183.600 183.420,183.240 183.600,182.800 183.600 C 182.360 183.600,182.000 183.780,182.000 184.000 C 182.000 184.220,181.550 184.400,181.000 184.400 C 180.450 184.400,180.000 184.580,180.000 184.800 C 180.000 185.020,179.640 185.200,179.200 185.200 C 178.760 185.200,178.400 185.358,178.400 185.551 C 178.400 185.745,177.860 186.127,177.200 186.400 C 176.540 186.673,176.000 187.055,176.000 187.249 C 176.000 187.442,175.724 187.600,175.387 187.600 C 175.051 187.600,174.671 187.870,174.545 188.200 C 174.418 188.530,174.064 188.800,173.757 188.800 C 173.451 188.800,173.200 188.980,173.200 189.200 C 173.200 189.420,172.880 189.600,172.488 189.600 C 172.097 189.600,171.517 189.960,171.200 190.400 C 170.883 190.840,170.428 191.200,170.190 191.200 C 169.951 191.200,169.102 191.799,168.302 192.532 C 167.502 193.265,166.208 194.300,165.427 194.832 C 164.510 195.456,164.004 196.119,164.003 196.699 C 164.001 197.407,162.315 199.767,160.787 201.200 C 159.892 202.039,155.698 207.288,154.429 209.157 C 151.892 212.894,147.600 220.859,147.600 221.831 C 147.600 222.144,147.420 222.400,147.200 222.400 C 146.980 222.400,146.800 222.839,146.800 223.376 C 146.800 223.913,146.620 224.464,146.400 224.600 C 146.180 224.736,146.000 225.276,146.000 225.800 C 146.000 226.324,145.820 226.864,145.600 227.000 C 144.974 227.387,145.131 228.800,145.800 228.800 C 146.130 228.800,146.400 228.561,146.400 228.270 C 146.400 227.649,148.057 226.000,148.681 226.000 C 148.917 226.000,149.535 225.462,150.055 224.804 C 150.575 224.146,151.238 223.606,151.529 223.604 C 152.168 223.599,152.949 222.852,153.310 221.900 C 153.456 221.515,153.811 221.200,154.099 221.200 C 154.387 221.200,155.783 220.030,157.200 218.600 C 158.617 217.170,159.971 216.000,160.207 216.000 C 160.444 216.000,161.341 215.280,162.200 214.400 C 163.059 213.520,163.947 212.800,164.172 212.800 C 164.397 212.800,165.866 211.524,167.436 209.964 C 169.007 208.404,170.721 206.914,171.246 206.652 C 171.771 206.391,172.435 205.687,172.722 205.088 C 173.009 204.490,173.504 204.000,173.822 204.000 C 174.140 204.000,174.400 203.762,174.400 203.471 C 174.400 203.180,175.165 202.547,176.100 202.064 C 177.035 201.581,179.420 199.570,181.400 197.596 C 183.380 195.621,185.315 194.004,185.700 194.003 C 186.132 194.001,186.400 193.694,186.400 193.200 C 186.400 192.667,186.667 192.400,187.200 192.400 C 187.640 192.400,188.000 192.220,188.000 192.000 C 188.000 191.780,188.284 191.600,188.631 191.600 C 189.357 191.600,191.600 189.487,191.600 188.802 C 191.600 188.205,192.611 187.200,193.211 187.200 C 193.469 187.200,194.444 186.390,195.380 185.400 C 196.315 184.410,197.300 183.600,197.568 183.600 C 198.191 183.600,199.200 182.602,199.200 181.986 C 199.200 181.711,199.477 181.621,199.862 181.769 C 200.576 182.042,202.400 180.612,202.400 179.779 C 202.400 178.918,203.647 178.213,206.349 177.545 L 209.000 176.889 206.500 176.845 C 205.070 176.819,204.000 176.971,204.000 177.200 " stroke="none" fill="#042936" fill-rule="evenodd"></path><path id="path7" d="M251.800 187.263 C 251.580 187.459,250.230 188.742,248.800 190.114 C 247.370 191.487,245.660 192.875,245.000 193.199 C 243.701 193.837,241.200 196.226,241.200 196.828 C 241.200 197.033,240.967 197.200,240.681 197.200 C 240.396 197.200,239.459 197.920,238.600 198.800 C 237.741 199.680,236.849 200.402,236.619 200.404 C 236.388 200.405,235.030 201.569,233.600 202.990 C 232.170 204.410,230.853 205.579,230.674 205.586 C 230.495 205.594,229.419 206.500,228.284 207.600 C 227.149 208.700,225.920 209.600,225.553 209.600 C 225.176 209.600,224.778 210.034,224.636 210.600 C 224.498 211.150,224.184 211.600,223.938 211.600 C 223.693 211.600,223.111 212.005,222.646 212.500 C 222.181 212.995,221.293 213.727,220.673 214.127 C 220.054 214.526,219.244 215.119,218.873 215.444 C 215.924 218.032,212.336 221.314,210.722 222.900 C 209.659 223.945,208.657 224.805,208.495 224.812 C 208.018 224.831,205.704 227.058,205.219 227.965 C 204.973 228.424,204.462 228.800,204.083 228.800 C 203.704 228.800,202.816 229.430,202.110 230.200 C 201.403 230.970,200.549 231.600,200.212 231.600 C 199.876 231.600,199.600 231.772,199.600 231.982 C 199.600 232.433,197.699 234.400,197.263 234.400 C 197.098 234.400,196.259 235.120,195.400 236.000 C 194.541 236.880,193.683 237.600,193.494 237.600 C 193.305 237.600,191.862 238.860,190.288 240.400 C 188.714 241.940,187.241 243.201,187.013 243.202 C 186.786 243.203,185.733 244.103,184.672 245.202 C 183.612 246.301,182.516 247.200,182.236 247.200 C 181.957 247.200,181.521 247.655,181.268 248.211 C 181.014 248.767,180.490 249.343,180.103 249.491 C 179.717 249.639,178.098 251.013,176.506 252.546 C 174.914 254.078,173.043 255.607,172.348 255.944 C 171.653 256.281,171.001 256.875,170.899 257.265 C 170.797 257.655,170.373 258.082,169.957 258.214 C 169.541 258.346,169.200 258.610,169.200 258.800 C 169.200 258.990,168.803 259.272,168.319 259.426 C 167.199 259.781,166.400 260.575,166.400 261.332 C 166.400 261.656,165.879 262.103,165.242 262.325 C 164.605 262.547,163.496 263.375,162.778 264.165 C 162.059 264.954,161.263 265.600,161.008 265.600 C 160.753 265.600,160.182 266.005,159.738 266.500 C 158.273 268.136,155.412 270.640,154.700 270.910 C 154.315 271.056,154.000 271.451,154.000 271.787 C 154.000 272.124,153.770 272.400,153.489 272.400 C 153.208 272.400,151.948 273.390,150.689 274.600 C 149.429 275.810,148.247 276.800,148.062 276.800 C 146.710 276.800,146.297 278.792,147.190 281.000 C 147.368 281.440,147.901 282.790,148.374 284.000 C 149.730 287.473,153.025 293.167,155.876 296.965 C 158.548 300.526,164.000 306.643,164.000 306.081 C 164.000 305.910,163.145 304.841,162.100 303.706 C 155.596 296.641,153.415 292.531,155.690 291.626 C 156.190 291.427,157.491 290.260,158.581 289.032 C 159.671 287.804,160.753 286.800,160.985 286.800 C 161.530 286.800,163.600 284.887,163.600 284.384 C 163.600 284.173,163.773 284.000,163.985 284.000 C 164.196 284.000,165.051 283.313,165.885 282.473 C 166.718 281.632,168.210 280.360,169.200 279.644 C 171.550 277.945,174.000 275.669,174.000 275.184 C 174.000 274.973,174.206 274.800,174.459 274.800 C 174.948 274.800,177.461 272.832,179.855 270.574 C 180.656 269.818,181.402 269.200,181.511 269.200 C 181.621 269.200,182.459 268.525,183.373 267.700 C 184.287 266.875,186.460 264.940,188.201 263.400 C 189.942 261.860,191.819 260.105,192.372 259.500 C 192.926 258.895,193.599 258.400,193.869 258.400 C 194.139 258.400,194.504 258.161,194.680 257.869 C 195.004 257.331,196.868 255.662,202.798 250.600 C 204.602 249.060,207.377 246.608,208.965 245.151 C 210.553 243.693,212.290 242.365,212.826 242.198 C 213.744 241.912,216.400 239.529,216.400 238.991 C 216.400 238.484,217.424 237.741,217.903 237.901 C 218.176 237.992,218.509 237.782,218.643 237.433 C 218.776 237.085,219.115 236.800,219.396 236.800 C 219.677 236.800,220.557 236.080,221.352 235.200 C 222.147 234.320,222.975 233.600,223.191 233.600 C 223.408 233.600,223.702 233.133,223.845 232.562 C 224.040 231.785,224.195 231.659,224.461 232.062 C 224.743 232.491,224.931 232.438,225.386 231.800 C 226.577 230.129,227.412 229.208,227.740 229.204 C 227.926 229.202,228.556 228.693,229.140 228.073 C 229.723 227.453,230.765 226.698,231.456 226.395 C 232.242 226.050,232.906 225.349,233.231 224.522 C 233.516 223.795,233.964 223.200,234.226 223.200 C 234.489 223.200,235.441 222.525,236.343 221.700 C 237.245 220.875,238.717 219.570,239.614 218.800 C 240.511 218.030,241.970 216.725,242.856 215.900 C 243.742 215.075,244.632 214.400,244.834 214.400 C 245.035 214.400,245.200 214.130,245.200 213.800 C 245.200 213.470,245.408 213.200,245.661 213.200 C 245.915 213.200,247.074 212.300,248.237 211.200 C 249.400 210.100,250.543 209.200,250.776 209.200 C 251.009 209.200,251.200 208.975,251.201 208.700 C 251.201 208.425,251.631 207.930,252.155 207.600 C 254.174 206.330,257.155 203.777,257.177 203.300 C 257.190 203.025,257.425 202.797,257.700 202.794 C 257.975 202.791,259.348 201.711,260.752 200.394 C 262.155 199.077,263.458 198.000,263.648 198.000 C 263.838 198.000,264.207 197.657,264.469 197.238 C 264.855 196.619,265.136 196.548,265.954 196.858 L 266.962 197.242 266.181 196.347 C 264.941 194.925,262.791 193.052,261.651 192.400 C 261.074 192.070,260.311 191.485,259.954 191.100 C 259.598 190.715,259.180 190.400,259.025 190.400 C 258.871 190.400,257.992 189.899,257.072 189.288 C 254.282 187.432,252.417 186.716,251.800 187.263 " stroke="none" fill="#347c8c" fill-rule="evenodd"></path><path id="path8" d="M206.349 177.545 C 203.647 178.213,202.400 178.918,202.400 179.779 C 202.400 180.612,200.576 182.042,199.862 181.769 C 199.477 181.621,199.200 181.711,199.200 181.986 C 199.200 182.602,198.191 183.600,197.568 183.600 C 197.300 183.600,196.315 184.410,195.380 185.400 C 194.444 186.390,193.469 187.200,193.211 187.200 C 192.611 187.200,191.600 188.205,191.600 188.802 C 191.600 189.487,189.357 191.600,188.631 191.600 C 188.284 191.600,188.000 191.780,188.000 192.000 C 188.000 192.220,187.640 192.400,187.200 192.400 C 186.667 192.400,186.400 192.667,186.400 193.200 C 186.400 193.694,186.132 194.001,185.700 194.003 C 185.315 194.004,183.380 195.621,181.400 197.596 C 179.420 199.570,177.035 201.581,176.100 202.064 C 175.165 202.547,174.400 203.180,174.400 203.471 C 174.400 203.762,174.140 204.000,173.822 204.000 C 173.504 204.000,173.009 204.490,172.722 205.088 C 172.435 205.687,171.771 206.391,171.246 206.652 C 170.721 206.914,169.007 208.404,167.436 209.964 C 165.866 211.524,164.397 212.800,164.172 212.800 C 163.947 212.800,163.059 213.520,162.200 214.400 C 161.341 215.280,160.444 216.000,160.207 216.000 C 159.971 216.000,158.617 217.170,157.200 218.600 C 155.783 220.030,154.387 221.200,154.099 221.200 C 153.811 221.200,153.456 221.515,153.310 221.900 C 152.949 222.852,152.168 223.599,151.529 223.604 C 151.238 223.606,150.575 224.146,150.055 224.804 C 149.535 225.462,148.892 226.000,148.625 226.000 C 148.016 226.000,146.400 227.690,146.400 228.326 C 146.400 228.587,146.130 228.800,145.800 228.800 C 145.131 228.800,144.974 227.387,145.600 227.000 C 145.820 226.864,146.000 226.324,146.000 225.800 C 146.000 225.276,146.180 224.736,146.400 224.600 C 146.620 224.464,146.800 223.913,146.800 223.376 C 146.800 222.839,146.980 222.400,147.200 222.400 C 147.420 222.400,147.600 222.144,147.600 221.831 C 147.600 220.859,151.892 212.894,154.429 209.157 C 155.682 207.312,159.789 202.167,160.787 201.192 C 160.904 201.077,161.540 200.344,162.200 199.564 C 162.860 198.783,162.050 199.519,160.400 201.200 C 149.374 212.435,142.212 229.051,141.366 245.359 C 141.087 250.744,141.092 250.800,141.942 250.800 C 142.414 250.800,142.800 250.596,142.800 250.346 C 142.800 249.863,144.647 248.000,145.126 248.000 C 145.282 248.000,146.517 246.920,147.870 245.600 C 149.224 244.280,150.463 243.200,150.624 243.200 C 150.785 243.200,151.783 242.390,152.841 241.400 C 153.900 240.410,154.953 239.600,155.183 239.600 C 155.412 239.600,155.600 239.326,155.600 238.990 C 155.600 238.655,156.005 238.222,156.500 238.028 C 156.995 237.834,158.112 236.938,158.981 236.038 C 159.851 235.137,160.704 234.400,160.878 234.400 C 161.436 234.400,163.200 232.674,163.200 232.128 C 163.200 231.838,163.425 231.599,163.700 231.598 C 163.975 231.597,164.775 231.057,165.478 230.398 C 166.181 229.739,166.890 229.200,167.052 229.200 C 167.342 229.200,170.266 226.470,173.157 223.500 C 173.960 222.675,174.934 222.000,175.321 222.000 C 175.708 222.000,176.129 221.730,176.255 221.400 C 176.382 221.070,176.736 220.800,177.043 220.800 C 177.349 220.800,177.600 220.526,177.600 220.190 C 177.600 219.855,178.035 219.415,178.566 219.213 C 179.097 219.011,179.649 218.476,179.793 218.023 C 179.936 217.570,180.300 217.200,180.600 217.200 C 180.900 217.200,181.260 216.840,181.400 216.400 C 181.540 215.960,181.910 215.600,182.224 215.600 C 182.537 215.600,183.018 215.240,183.293 214.800 C 183.568 214.360,184.066 214.000,184.401 214.000 C 184.736 214.000,185.188 213.595,185.405 213.100 C 185.622 212.605,186.205 212.022,186.700 211.805 C 187.195 211.588,187.600 211.195,187.600 210.932 C 187.600 210.669,187.955 210.341,188.390 210.203 C 188.824 210.065,189.764 209.333,190.478 208.576 C 191.192 207.819,192.006 207.200,192.288 207.200 C 192.570 207.200,192.800 207.020,192.800 206.800 C 192.800 206.580,193.032 206.400,193.315 206.400 C 193.598 206.400,194.717 205.500,195.800 204.400 C 196.883 203.300,197.959 202.400,198.190 202.400 C 198.421 202.400,198.788 202.007,199.005 201.526 C 199.222 201.045,200.245 200.100,201.278 199.426 C 202.311 198.752,203.166 197.975,203.178 197.700 C 203.190 197.425,203.647 197.200,204.192 197.200 C 204.917 197.200,205.252 196.931,205.436 196.200 C 205.574 195.650,205.847 195.200,206.043 195.200 C 206.447 195.200,207.232 194.542,209.741 192.100 C 210.701 191.165,211.651 190.400,211.850 190.400 C 212.050 190.400,213.407 189.230,214.865 187.800 C 216.324 186.370,217.680 185.200,217.880 185.200 C 218.409 185.200,220.800 182.646,220.800 182.081 C 220.800 181.816,221.036 181.600,221.325 181.600 C 221.613 181.600,222.236 181.240,222.708 180.800 C 223.180 180.360,223.741 180.000,223.954 180.000 C 224.167 180.000,224.700 179.545,225.137 178.989 C 225.575 178.433,226.083 178.004,226.266 178.036 C 227.156 178.192,227.279 177.944,226.576 177.413 C 225.412 176.532,210.041 176.632,206.349 177.545 " stroke="none" fill="#043444" fill-rule="evenodd"></path></g></svg>